<svg width="64" height="64" viewBox="0 0 64 64" xmlns="http://www.w3.org/2000/svg" role="img" aria-label="Scorecard logo">
  <defs>
    <linearGradient id="bg" x1="0%" y1="0%" x2="100%" y2="100%">
      <stop offset="0%" stop-color="#0b1518" />
      <stop offset="100%" stop-color="#0b2825" />
    </linearGradient>
    <linearGradient id="bars" x1="0%" y1="0%" x2="0%" y2="100%">
      <stop offset="0%" stop-color="#86dfd5" />
      <stop offset="100%" stop-color="#2ba193" />
    </linearGradient>
    <linearGradient id="accent" x1="0%" y1="0%" x2="100%" y2="0%">
      <stop offset="0%" stop-color="#e4ba4e" />
      <stop offset="100%" stop-color="#dea821" />
    </linearGradient>
  </defs>

  <rect x="0" y="0" width="64" height="64" rx="12" fill="url(#bg)" />
  <rect x="6" y="6" width="52" height="52" rx="10" fill="none" stroke="#203b46" stroke-width="1.5" />

  <g opacity="0.16">
    <path d="M14 20h36M14 30h36M14 40h36M14 50h36" stroke="#86dfd5" stroke-width="1" />
  </g>

  <rect x="14" y="30" width="8" height="16" rx="2.5" fill="url(#bars)" />
  <rect x="26" y="22" width="8" height="24" rx="2.5" fill="url(#bars)" />
  <rect x="38" y="14" width="8" height="32" rx="2.5" fill="url(#bars)" />

  <path d="M16 40l9.5-8.5 8 6 13.5-12.5" fill="none" stroke="url(#accent)" stroke-width="3" stroke-linecap="round" stroke-linejoin="round" />
  <path d="M44 22l6 4-2.5 7" fill="none" stroke="#36c9b8" stroke-width="2" stroke-linecap="round" stroke-linejoin="round" />

  <circle cx="25.5" cy="31.5" r="2.2" fill="#0b1518" stroke="#e4ba4e" stroke-width="2" />
  <circle cx="33.5" cy="38.5" r="2.2" fill="#0b1518" stroke="#e4ba4e" stroke-width="2" />
  <circle cx="47.5" cy="25.5" r="2.2" fill="#0b1518" stroke="#36c9b8" stroke-width="2" />
</svg>
